#!OML:ASF E:\motion texture\Top Level 1\Subject 1\Session 1\male.ASF
:FULLY-SPECIFIED
:DEGREES
276
root -13.8116 15.8654 2.41235 134.879 -79.4671 -130.95
lowerback 17.9775 -1.03981 2.57039
upperback 5.32489 -1.10752 4.1559
thorax -4.3045 -0.744919 3.20886
lowerneck -13.0961 -1.45673 -3.63845
upperneck -1.18474 -1.9492 9.65509
head 2.10901 -0.781102 3.76422
rclavicle -1.17283e-014 -2.59414e-014
rhumerus -14.2441 -10.4045 -65.6642
rradius 57.1942
rwrist 13.8724
rhand -21.8308 -31.3385
rfingers 7.12502
rthumb 4.57215 -61.2692
lclavicle -1.17283e-014 -2.59414e-014
lhumerus -32.2755 -15.3539 102.336
lradius 66.528
lwrist -28.7064
lhand -22.5818 14.0272
lfingers 7.12502
lthumb 3.84692 43.9722
rfemur -40.5368 -5.4234 14.3066
rtibia 60.115
rfoot -16.1599 -5.91095
rtoes -13.3629
lfemur -22.7642 -4.61244 5.82345
ltibia 70.8647
lfoot -15.4796 18.3722
ltoes -7.52107
277
root -13.9581 15.9225 2.37759 139.476 -79.0891 -135.147
lowerback 17.6663 -0.973753 2.57486
upperback 5.19987 -1.01792 4.318
thorax -4.27356 -0.699473 3.35352
lowerneck -13.2532 -1.32751 -3.45938
upperneck -1.21946 -1.79318 9.4023
head 2.10479 -0.709019 3.64938
rclavicle -1.31198e-014 -3.67752e-014
rhumerus -14.1871 -9.48521 -65.2532
rradius 57.3925
rwrist 14.0312
rhand -22.0021 -30.7656
rfingers 7.12502
rthumb 4.40677 -60.6997
lclavicle -1.31198e-014 -3.67752e-014
lhumerus -32.2437 -14.6842 101.484
lradius 65.6049
lwrist -28.8143
lhand -21.8111 13.6975
lfingers 7.12502
lthumb 4.59121 43.6278
rfemur -40.3585 -4.94615 14.2013
rtibia 59.6699
rfoot -16.4461 -5.69698
rtoes -13.2797
lfemur -23.6421 -3.8297 4.54725
ltibia 71.9909
lfoot -15.731 18.1744
ltoes -7.69913
278
root -14.1032 15.9875 2.34581 143.258 -78.6798 -138.49
lowerback 17.344 -0.932434 2.65381
upperback 5.07232 -0.948866 4.4908
thorax -4.23915 -0.664528 3.47173
lowerneck -13.379 -1.19931 -3.28913
upperneck -1.297 -1.63785 9.18094
head 2.08207 -0.638797 3.54719
rclavicle 2.08724e-014 -9.14409e-015
rhumerus -14.2092 -8.53206 -64.9111
rradius 57.8207
rwrist 14.1265
rhand -22.1814 -30.2197
rfingers 7.12502
rthumb 4.23357 -60.1574
lclavicle 2.08724e-014 -9.14409e-015
lhumerus -32.2584 -13.945 100.619
lradius 64.6737
lwrist -28.8884
lhand -21.1221 13.5244
lfingers 7.12502
lthumb 5.25642 43.4392
rfemur -40.1217 -4.46062 14.1362
rtibia 59.0842
rfoot -16.6715 -5.54657
rtoes -13.1756
lfemur -24.6295 -3.01997 3.34096
ltibia 72.9271
lfoot -15.9569 18.101
ltoes -8.02809
279
root -14.2473 16.0598 2.31685 146.312 -78.2861 -141.083
lowerback 17.0301 -0.91508 2.78822
upperback 4.94117 -0.902319 4.67044
thorax -4.21226 -0.641064 3.57111
lowerneck -13.4857 -1.07504 -3.12269
upperneck -1.39305 -1.48889 8.99106
head 2.05151 -0.572198 3.45655
rclavicle 1.50082e-014 2.8625e-014
rhumerus -14.2953 -7.59905 -64.6376
rradius 58.4104
rwrist 14.0998
rhand -22.3578 -29.7373
rfingers 7.12502
rthumb 4.06329 -59.6783
lclavicle 1.50082e-014 2.8625e-014
lhumerus -32.3115 -13.1556 99.753
lradius 63.7173
lwrist -28.8874
lhand -20.5411 13.5086
lfingers 7.12502
lthumb 5.81739 43.4087
rfemur -39.803 -3.98019 14.0887
rtibia 58.3541
rfoot -16.8387 -5.46346
rtoes -13.0567
lfemur -25.7024 -2.24532 2.18677
ltibia 73.651
lfoot -16.1653 18.0814
ltoes -8.52176
280
root -14.3905 16.1391 2.29015 148.808 -77.935 -143.116
lowerback 16.7396 -0.916399 2.95178
upperback 4.81179 -0.87608 4.84761
thorax -4.19501 -0.628022 3.65633
lowerneck -13.5666 -0.957062 -2.95639
upperneck -1.5084 -1.35029 8.84149
head 2.01195 -0.511138 3.37938
rclavicle 2.0276e-014 2.74323e-014
rhumerus -14.4311 -6.72863 -64.4406
rradius 59.0913
rwrist 13.9461
rhand -22.5159 -29.2926
rfingers 7.12502
rthumb 3.91062 -59.2364
lclavicle 2.0276e-014 2.74323e-014
lhumerus -32.3906 -12.3325 98.8863
lradius 62.7174
lwrist -28.7917
lhand -20.0518 13.6386
lfingers 7.12502
lthumb 6.28976 43.5253
rfemur -39.3805 -3.49871 14.0352
rtibia 57.4805
rfoot -16.9491 -5.4482
rtoes -12.937
lfemur -26.8185 -1.54596 1.06633
ltibia 74.1394
lfoot -16.3724 18.0394
ltoes -9.12512
281
root -14.533 16.2245 2.26535 150.888 -77.6481 -144.738
lowerback 16.4727 -0.935326 3.12298
upperback 4.68171 -0.871834 5.01732
thorax -4.1899 -0.625946 3.73456
lowerneck -13.6434 -0.847969 -2.80271
upperneck -1.61399 -1.22491 8.73959
head 1.97749 -0.455467 3.32094
rclavicle -3.43897e-014 1.19271e-014
rhumerus -14.6068 -5.93898 -64.3213
rradius 59.8017
rwrist 13.6973
rhand -22.6467 -28.8861
rfingers 7.12502
rthumb 3.78425 -58.8323
lclavicle -3.43897e-014 1.19271e-014
lhumerus -32.484 -11.4881 98.0211
lradius 61.659
lwrist -28.5778
lhand -19.6496 13.9167
lfingers 7.12502
lthumb 6.67809 43.7914
rfemur -38.8607 -3.009 13.9566
rtibia 56.4736
rfoot -17.0068 -5.51166
rtoes -12.8271
lfemur -27.9614 -0.948204 -0.0301348
ltibia 74.3745
lfoot -16.5935 17.9139
ltoes -9.93304
282
root -14.6755 16.3155 2.2423 152.657 -77.4153 -146.068
lowerback 16.2312 -0.964251 3.29681
upperback 4.55964 -0.881281 5.17643
thorax -4.18916 -0.630967 3.80334
lowerneck -13.7204 -0.74863 -2.67027
upperneck -1.70701 -1.11261 8.68985
head 1.94986 -0.404786 3.28441
rclavicle -1.98785e-014 6.95746e-014
rhumerus -14.8144 -5.24348 -64.2809
rradius 60.4967
rwrist 13.4084
rhand -22.7386 -28.5387
rfingers 7.12502
rthumb 3.69554 -58.4864
lclavicle -1.98785e-014 6.95746e-014
lhumerus -32.5844 -10.6316 97.16
lradius 60.5401
lwrist -28.2619
lhand -19.3238 14.3311
lfingers 7.12502
lthumb 6.99262 44.1956
rfemur -38.2291 -2.48685 13.8549
rtibia 55.3372
rfoot -17.0171 -5.65192
rtoes -12.723
lfemur -29.0816 -0.453688 -1.09419
ltibia 74.334
lfoot -16.8262 17.6382
ltoes -10.8833
283
root -14.8181 16.4112 2.22039 154.156 -77.242 -147.132
lowerback 15.9965 -1.00285 3.46941
upperback 4.43931 -0.904533 5.32808
thorax -4.18948 -0.64285 3.86767
lowerneck -13.8009 -0.661424 -2.56558
upperneck -1.78235 -1.01524 8.68761
head 1.93126 -0.359783 3.2693
rclavicle 4.77083e-015 1.59028e-015
rhumerus -15.0521 -4.63794 -64.314
rradius 61.1428
rwrist 13.1191
rhand -22.7775 -28.2634
rfingers 7.12502
rthumb 3.65793 -58.2118
lclavicle 4.77083e-015 1.59028e-015
lhumerus -32.6926 -9.77597 96.3073
lradius 59.3646
lwrist -27.8821
lhand -19.0579 14.8629
lfingers 7.12502
lthumb 7.24927 44.7188
rfemur -37.5138 -1.93029 13.7383
rtibia 54.0856
rfoot -16.9763 -5.88412
rtoes -12.6261
lfemur -30.1919 -0.0585358 -2.10611
ltibia 74.0226
lfoot -17.0603 17.1699
ltoes -11.9112
284
root -14.9611 16.5108 2.19936 155.438 -77.1151 -147.982
lowerback 15.7577 -1.04595 3.64728
upperback 4.32445 -0.934968 5.47108
thorax -4.18135 -0.658406 3.92075
lowerneck -13.8835 -0.590938 -2.49475
upperneck -1.84724 -0.936895 8.72307
head 1.91903 -0.322857 3.27295
rclavicle 2.08724e-014 -3.65764e-014
rhumerus -15.325 -4.119 -64.4174
rradius 61.7365
rwrist 12.844
rhand -22.7412 -28.0847
rfingers 7.12502
rthumb 3.69297 -58.0325
lclavicle 2.08724e-014 -3.65764e-014
lhumerus -32.7959 -8.92984 95.4607
lradius 58.1315
lwrist -27.4924
lhand -18.8292 15.4531
lfingers 7.12502
lthumb 7.47006 45.3012
rfemur -36.7251 -1.32882 13.6172
rtibia 52.732
rfoot -16.8906 -6.20464
rtoes -12.5135
lfemur -31.278 0.26039 -3.05118
ltibia 73.447
lfoot -17.2932 16.499
ltoes -12.949
285
root -15.1047 16.6132 2.17902 156.551 -77.0261 -148.662
lowerback 15.5046 -1.08813 3.82576
upperback 4.21341 -0.966567 5.60583
thorax -4.16138 -0.674515 3.96411
lowerneck -13.9649 -0.533551 -2.45166
upperneck -1.9034 -0.872818 8.78292
head 1.91122 -0.292003 3.28974
rclavicle 5.24792e-014 1.66979e-014
rhumerus -15.6346 -3.67275 -64.5838
rradius 62.268
rwrist 12.5637
rhand -22.635 -27.9829
rfingers 7.12502
rthumb 3.7956 -57.9288
lclavicle 5.24792e-014 1.66979e-014
lhumerus -32.9128 -8.10158 94.6242
lradius 56.8798
lwrist -27.1446
lhand -18.6224 16.0602
lfingers 7.12502
lthumb 7.66959 45.9011
rfemur -35.8795 -0.690143 13.4984
rtibia 51.2937
rfoot -16.7651 -6.60192
rtoes -12.3663
lfemur -32.3378 0.529446 -3.92239
ltibia 72.6257
lfoot -17.516 15.6498
ltoes -13.9764
286
root -15.2491 16.7172 2.15912 157.54 -76.9664 -149.217
lowerback 15.2407 -1.12395 4.00273
upperback 4.10199 -0.99181 5.73082
thorax -4.13612 -0.687311 3.99611
lowerneck -14.0365 -0.493112 -2.42553
upperneck -1.95603 -0.828403 8.84777
head 1.90438 -0.270617 3.3103
rclavicle -4.37326e-014 -2.46493e-014
rhumerus -15.9978 -3.28847 -64.806
rradius 62.7494
rwrist 12.2462
rhand -22.4489 -27.9358
rfingers 7.12502
rthumb 3.97527 -57.8785
lclavicle -4.37326e-014 -2.46493e-014
lhumerus -33.051 -7.30234 93.799
lradius 55.6337
lwrist -26.8672
lhand -18.3891 16.6425
lfingers 7.12502
lthumb 7.89478 46.4751
rfemur -34.9903 -0.0326225 13.3867
rtibia 49.7901
rfoot -16.6078 -7.05742
rtoes -12.1538
lfemur -33.3642 0.779593 -4.71779
ltibia 71.5824
lfoot -17.7245 14.6595
ltoes -14.9238
287
root -15.3943 16.8218 2.13948 158.443 -76.9291 -149.689
lowerback 14.9697 -1.15047 4.17139
upperback 3.98733 -1.00714 5.8452
thorax -4.1107 -0.694908 4.01932
lowerneck -14.1067 -0.468399 -2.40672
upperneck -1.99192 -0.803228 8.89966
head 1.90399 -0.258269 3.3268
rclavicle -1.98785e-014 -1.90833e-014
rhumerus -16.4212 -2.94693 -65.0794
rradius 63.1914
rwrist 11.8554
rhand -22.1884 -27.9606
rfingers 7.12502
rthumb 4.22682 -57.8984
lclavicle -1.98785e-014 -1.90833e-014
lhumerus -33.2241 -6.53796 92.9866
lradius 54.43
lwrist -26.6506
lhand -18.0908 17.1772
lfingers 7.12502
lthumb 8.18269 46.9987
rfemur -34.0656 0.619913 13.2837
rtibia 48.2382
rfoot -16.4273 -7.5481
rtoes -11.8448
lfemur -34.3526 1.03911 -5.43939
ltibia 70.3431
lfoot -17.9098 13.5844
ltoes -15.7967
288
root -15.5403 16.9255 2.11992 159.292 -76.9083 -150.114
lowerback 14.6984 -1.16404 4.32705
upperback 3.87068 -1.00798 5.94584
thorax -4.08763 -0.694997 4.03248
lowerneck -14.1725 -0.458137 -2.38134
upperneck -2.01958 -0.796981 8.92704
head 1.90627 -0.255486 3.33233
rclavicle 7.95139e-016 -2.8625e-014
rhumerus -16.9066 -2.64589 -65.4036
rradius 63.6034
rwrist 11.3723
rhand -21.8534 -28.0043
rfingers 7.12502
rthumb 4.55035 -57.9354
lclavicle 7.95139e-016 -2.8625e-014
lhumerus -33.4356 -5.822 92.1844
lradius 53.297
lwrist -26.4564
lhand -17.7647 17.6076
lfingers 7.12502
lthumb 8.49744 47.4166
rfemur -33.1075 1.23303 13.1907
rtibia 46.6494
rfoot -16.2284 -8.04305
rtoes -11.4351
lfemur -35.2965 1.33339 -6.09476
ltibia 68.9442
lfoot -18.061 12.4817
ltoes -16.589
289
root -15.6872 17.0271 2.10022 160.105 -76.9009 -150.514
lowerback 14.4289 -1.16512 4.46754
upperback 3.74922 -0.994519 6.03099
thorax -4.07098 -0.687551 4.03527
lowerneck -14.2427 -0.461342 -2.35593
upperneck -2.02571 -0.807942 8.93184
head 1.91731 -0.260668 3.3292
rclavicle -3.81667e-014 -3.26007e-014
rhumerus -17.4618 -2.36845 -65.776
rradius 63.9938
rwrist 10.7874
rhand -21.4641 -28.0269
rfingers 7.12502
rthumb 4.92625 -57.9496
lclavicle -3.81667e-014 -3.26007e-014
lhumerus -33.6889 -5.16825 91.3925
lradius 52.2506
lwrist -26.221
lhand -17.4027 17.946
lfingers 7.12502
lthumb 8.84677 47.7406
rfemur -32.1232 1.77984 13.1081
rtibia 45.0374
rfoot -16.0171 -8.52308
rtoes -10.9446
lfemur -36.1949 1.67866 -6.69003
ltibia 67.4142
lfoot -18.1662 11.414
ltoes -17.3676
